<?xml version="1.0" encoding="utf-8"?>
<!-- Generator: Adobe Illustrator 19.0.0, SVG Export Plug-In . SVG Version: 6.00 Build 0)  -->
<svg version="1.1" id="Layer_1" xmlns="http://www.w3.org/2000/svg" xmlns:xlink="http://www.w3.org/1999/xlink" x="0px" y="0px"
	 viewBox="0 0 100 100" style="enable-background:new 0 0 100 100;" xml:space="preserve">
<style type="text/css">
	.st0{fill:#288BC9;}
	.st1{fill:#5E6BB2;}
	.st2{fill:#FFFFFF;}
	.st3{fill:#231F20;}
	.st4{fill:#CAE8F9;}
	.st5{fill:#010101;}
	.st6{fill:#F89F1F;}
	.st7{fill:#2EC1D6;}
</style>
<g>
	<g>
		<circle id="XMLID_10_" class="st0" cx="50" cy="50" r="50"/>
		<path id="XMLID_21_" class="st1" d="M99.5,57.3c2.8-18.9-5.5-36.9-19.9-47.6l-59,80.7c6.3,4.6,13.8,7.8,22.1,9
			C70.1,103.5,95.4,84.6,99.5,57.3z"/>
	</g>
	<g>
		<path id="XMLID_20_" class="st2" d="M31.5,34.8h7.7v-7.7c0-0.9,0.7-1.5,1.5-1.5H50h15.4c2.6,0,4.6,2.1,4.6,4.6v43.4
			c0,2.6-2.1,4.6-4.6,4.6H50H34.6c-2.6,0-4.6-2.1-4.6-4.6V36.3C30,35.5,30.7,34.8,31.5,34.8z"/>
		<path class="st3" d="M28.4,73.5V36.3c0-1.8,1.4-3.1,3.1-3.1h6.1v-6.1c0-1.8,1.4-3.1,3.1-3.1h24.6c3.4,0,6.2,2.8,6.2,6.2v43.4
			c0,3.4-2.8,6.2-6.2,6.2H34.6C31.2,79.7,28.4,76.9,28.4,73.5z M40.8,26.5v8.3c0,0.9-0.7,1.6-1.6,1.6H31v37.2c0,1.7,2,3.6,3.6,3.6
			h30.8c1.7,0,3.6-2,3.6-3.6V30.2c0-1.7-2-3.6-3.6-3.6L40.8,26.5z"/>
		<path id="XMLID_17_" class="st4" d="M30,37.9h10.8c0.9,0,1.5-0.7,1.5-1.5V25.5H39c-1.2,0-2.4,0.5-3.3,1.3l-4.4,4.4
			c-0.9,0.9-1.3,2-1.3,3.2V37.9z"/>
		<path class="st3" d="M28.4,37.9v-3.4c0-1.6,0.7-3.2,1.8-4.4l4.4-4.4c1.1-1.2,2.7-1.8,4.4-1.8h3.4c0.9,0,1.6,0.7,1.6,1.6v10.8
			c0,1.7-1.4,3.1-3.1,3.1H30C29.1,39.4,28.4,38.7,28.4,37.9z M41.3,26.5H39c-0.8,0-1.6,0.3-2.1,0.9l-4.4,4.4
			c-0.6,0.6-1.5,1.9-1.5,2.7v2.4h10.4V26.5z"/>
		<g>
			<path id="XMLID_12_" class="st5" d="M59.2,45.6H37.7c-2,0-2-3.1,0-3.1h21.5C61.3,42.5,61.3,45.6,59.2,45.6z"/>
			<path id="XMLID_11_" class="st5" d="M51.5,51.8H37.7c-2,0-2-3.1,0-3.1h13.8C53.5,48.7,53.5,51.8,51.5,51.8z"/>
			<path id="XMLID_9_" class="st5" d="M51.5,57.9H37.7c-2,0-2-3.1,0-3.1h13.8C53.5,54.9,53.5,57.9,51.5,57.9z"/>
			<path id="XMLID_8_" class="st5" d="M51.5,64.1H37.7c-2,0-2-3.1,0-3.1h13.8C53.5,61,53.5,64.1,51.5,64.1z"/>
			<path id="XMLID_7_" class="st5" d="M59.2,72H50c-2,0-2-3.1,0-3.1h9.2C61.3,68.9,61.3,72,59.2,72z"/>
		</g>
		<g>
			<path id="XMLID_6_" class="st5" d="M59.2,72H50v-3.1h9.2C61.3,68.9,61.3,72,59.2,72z"/>
		</g>
		<path class="st3" d="M60.8,16.7c-2.8,0-5.1,2.3-5.1,5.1v36.8l5,9.6l5.2-9.6V21.8C65.9,19,63.7,16.7,60.8,16.7z M58.6,58.7V21.8
			c0-1.2,1-2.3,2.3-2.3s2.3,1,2.3,2.3v36.8H58.6z"/>
		<path id="XMLID_3_" class="st6" d="M63.7,21.8c0-1.2-1.6-2.3-2.8-2.3s-2.8,1-2.8,2.3v36.8l2.8,4.7l2.8-4.7V21.8z"/>
		<path id="XMLID_2_" class="st7" d="M63.1,57.6c0-1.2-1.5-0.8-2.7-0.8c-1.2,0-1.8-0.4-1.8,0.8L58,58.7l2.8,4.7l2.8-4.7L63.1,57.6z"
			/>
		<rect id="XMLID_1_" x="55.7" y="56" class="st3" width="10.2" height="2.7"/>
	</g>
</g>
</svg>
