<?xml version="1.0" encoding="utf-8"?>
<!-- Generator: Adobe Illustrator 19.0.0, SVG Export Plug-In . SVG Version: 6.00 Build 0)  -->
<svg version="1.1" id="Layer_1" xmlns="http://www.w3.org/2000/svg" xmlns:xlink="http://www.w3.org/1999/xlink" x="0px" y="0px"
	 viewBox="0 0 100 100" style="enable-background:new 0 0 100 100;" xml:space="preserve">
<style type="text/css">
	.st0{fill:#288BC9;}
	.st1{fill:#5E6BB2;}
	.st2{fill:#010101;}
	.st3{fill:#444446;}
	.st4{fill:#70CAEA;}
	.st5{fill:#F89F1F;}
	.st6{fill:#F5BE9A;}
</style>
<g id="XMLID_59_">
	<circle id="XMLID_13_" class="st0" cx="50" cy="50" r="50"/>
	<path id="XMLID_44_" class="st1" d="M99.5,57.3c2.8-18.9-5.5-36.9-19.9-47.6l-59,80.7c6.3,4.6,13.8,7.8,22.1,9
		C70.1,103.5,95.4,84.6,99.5,57.3z"/>
	<path id="XMLID_43_" class="st2" d="M61.7,98.6V82.3c0,0,0,0,0,0v-8c0-0.6,0.5-1.2,1.2-1.2h0.5v-4.9c0-0.6,0.5-1.2,1.2-1.2h0.2
		v-2.5l-1-0.9c-1.3-1.2-2-2.9-2-4.6V46.3c0-0.6,0.5-1.2,1.2-1.2c1,0,1.9,0.3,2.7,0.8v-9.8c0-1.8,1.4-3.2,3.2-3.2h0
		c0.4,0,0.8,0.1,1.2,0.2c0.1-0.2,0.2-0.4,0.4-0.6v-9c0-2.2-1.8-3.9-3.9-3.9h0c-0.6,0-1.1,0.1-1.6,0.3v-1.2c0-2.2-1.8-3.9-3.9-3.9h0
		c-0.6,0-1.1,0.1-1.6,0.3c-0.2-2-1.8-3.6-3.9-3.6h0c-1.7,0-3.2,1.1-3.7,2.7c-0.5-0.3-1.1-0.4-1.8-0.4h0c-2.2,0-3.9,1.8-3.9,3.9v13.9
		c-1.1-0.9-2.5-1.4-4-1.4c-0.6,0-1.2,0.5-1.2,1.2v17c0,2.2,0.9,4.4,2.6,5.9l1.5,1.3v3.9h-0.7c-0.6,0-1.2,0.5-1.2,1.2v7h-1
		c-0.6,0-1.2,0.5-1.2,1.2v11.4c0,0,0,0,0,0v18.9c3,0.6,6.1,0.9,9.3,0.9C54,100,57.9,99.5,61.7,98.6z"/>
	<path id="XMLID_42_" class="st2" d="M36.8,73.1h-0.5v-4.9c0-0.6-0.5-1.2-1.1-1.2v-2.6l1.3-1.6c1.2-1.5,1.9-3.3,1.9-5.2v-3.1
		c0,0,0-0.1,0-0.1v-14c0-1.8-1.4-3.2-3.2-3.2h0c-0.3,0-0.6,0-0.9,0.1v-0.5c0-1.8-1.4-3.2-3.2-3.2h0c-0.3,0-0.6,0-0.9,0.1
		c-0.3-1.5-1.6-2.6-3.1-2.6h0c-1.3,0-2.4,0.8-2.9,1.9c-0.4-0.1-0.7-0.2-1.2-0.2h0c-1.8,0-3.2,1.4-3.2,3.2v9.8
		c-0.8-0.5-1.7-0.8-2.7-0.8c-0.6,0-1.2,0.5-1.2,1.2v12.6c0,1.8,0.7,3.5,2,4.6l1,0.9V67h-0.2c-0.6,0-1.2,0.5-1.2,1.2v4.9h-0.5
		c-0.6,0-1.2,0.5-1.2,1.2v3.3v2.8v6.1c6.2,5.8,13.8,10.1,22.3,12.2V74.2C38,73.6,37.5,73.1,36.8,73.1z"/>
	<path id="XMLID_41_" class="st3" d="M64,98V83.6c0,0,0,0,0,0v-8.3h0.5h3v-5.5h-1H44.1h-1v7.3c0,0,0,0,0,0v22.3
		c2.3,0.3,4.6,0.5,6.9,0.5C54.9,100,59.6,99.3,64,98z"/>
	<path id="XMLID_40_" class="st4" d="M35.2,75.4H18.5h-0.5v2.1v0.9v10.1c5.1,4.2,11.1,7.5,17.6,9.4V75.4H35.2z"/>
	<polygon id="XMLID_39_" class="st5" points="19.7,73.1 19.7,69.3 19.9,69.3 34,69.3 34,73.1 	"/>
	<path id="XMLID_38_" class="st6" d="M36,54.3L36,54.3L36,54.3C36,54.4,36,54.4,36,54.3l0,3.3c0,1.4-0.5,2.7-1.3,3.8l-1.5,1.9
		c-0.2,0.2-0.3,0.5-0.3,0.7v3H21.1v-3c0-0.3-0.1-0.6-0.4-0.9l-1.4-1.3c-0.8-0.8-1.3-1.8-1.3-2.9V47.7c0.9,0.4,1.5,1.4,1.5,2.4v4.3
		c0,0.6,0.5,1.1,1,1.2c0.1,0,7.3,0.9,7.3,5.6c0,0.6,0.5,1.2,1.2,1.2c0.6,0,1.2-0.5,1.2-1.2c0-2.9-1.7-5.2-4.9-6.6
		c-1.3-0.6-2.6-0.9-3.5-1.1V36.1c0-0.5,0.4-0.9,0.9-0.9h0c0.5,0,0.9,0.4,0.9,0.9V50c0,0.6,0.5,1.2,1.2,1.2S26,50.7,26,50V36.1v-1.7
		c0-0.5,0.4-0.9,0.9-0.9h0c0.5,0,0.9,0.4,0.9,0.9v2.4V50c0,0.6,0.5,1.2,1.2,1.2c0.6,0,1.2-0.5,1.2-1.2V36.9c0-0.5,0.4-0.9,0.9-0.9h0
		c0.5,0,0.9,0.4,0.9,0.9v3.6V50c0,0.6,0.5,1.2,1.2,1.2c0.6,0,1.2-0.5,1.2-1.2v-9.6c0-0.5,0.4-0.9,0.9-0.9h0c0.5,0,0.9,0.4,0.9,0.9
		V54.3z"/>
	<path id="XMLID_37_" class="st6" d="M68,42.1C68,42.1,68,42.2,68,42.1l0,4.4c0,1.9-0.7,3.8-1.9,5.3L64,54.3
		c-0.2,0.2-0.3,0.5-0.3,0.7v4.4H47.1V55c0-0.3-0.1-0.6-0.4-0.9l-1.8-1.7c-1.2-1.1-1.8-2.6-1.8-4.2V32.7c1.6,0.5,2.8,2,2.8,3.8v5.7
		c0,0.6,0.5,1.1,1,1.2c0,0,2.7,0.3,5.3,1.5c3.2,1.5,4.9,3.7,4.9,6.4c0,0.6,0.5,1.2,1.2,1.2c0.6,0,1.2-0.5,1.2-1.2
		c0-3.7-2.2-6.7-6.3-8.6c-1.9-0.9-3.8-1.3-4.9-1.5V17.7c0-0.9,0.7-1.6,1.6-1.6h0c0.9,0,1.6,0.7,1.6,1.6v18.7c0,0.6,0.5,1.2,1.2,1.2
		c0.6,0,1.2-0.5,1.2-1.2V17.7v-2.2c0-0.9,0.7-1.6,1.6-1.6h0c0.9,0,1.6,0.7,1.6,1.6v3.3v17.6c0,0.6,0.5,1.2,1.2,1.2
		c0.6,0,1.2-0.5,1.2-1.2V18.7c0-0.9,0.7-1.6,1.6-1.6h0c0.9,0,1.6,0.7,1.6,1.6v4.8v12.8c0,0.6,0.5,1.2,1.2,1.2c0.6,0,1.2-0.5,1.2-1.2
		V23.5c0-0.9,0.7-1.6,1.6-1.6h0c0.9,0,1.6,0.7,1.6,1.6L68,42.1L68,42.1z"/>
	<polygon id="XMLID_36_" class="st4" points="45.3,67.6 45.3,61.8 46,61.8 64.9,61.8 65.3,61.8 65.3,67.6 65.3,67.6 	"/>
	<path id="XMLID_35_" class="st2" d="M82.8,73.1h-0.5v-4.9c0-0.6-0.5-1.2-1.1-1.2v-2.6l1.3-1.6c1.2-1.5,1.9-3.3,1.9-5.2v-3.1
		c0,0,0-0.1,0-0.1v-14c0-1.8-1.4-3.2-3.2-3.2h0c-0.3,0-0.6,0-0.9,0.1v-0.5c0-1.8-1.4-3.2-3.2-3.2h0c-0.3,0-0.6,0-0.9,0.1
		c-0.3-1.5-1.6-2.6-3.1-2.6h0c-1,0-1.9,0.5-2.5,1.3v9.7c0,0,0,0.1,0,0.1v4.2c0,2.5-0.9,4.9-2.4,6.8l-1.8,2.2v4h0.4
		c0.6,0,1.2,0.5,1.2,1.2v7h1c0.6,0,1.2,0.5,1.2,1.2v27.1c5.2-2.3,10-5.4,14.1-9.2V74.2C83.9,73.6,83.4,73.1,82.8,73.1z"/>
	<path id="XMLID_34_" class="st2" d="M68.8,32.9L68.8,32.9c-1.8,0-3.2,1.4-3.2,3.2v9.8c-0.8-0.5-1.7-0.8-2.7-0.8
		c-0.6,0-1.2,0.5-1.2,1.2v12.6c0,1.8,0.7,3.5,2,4.6l1,0.9V67h-0.2c-0.6,0-1.2,0.5-1.2,1.2v4.9h-0.5c-0.6,0-1.2,0.5-1.2,1.2v8
		c0,0,0,0,0,0v16.3c2.8-0.7,5.5-1.6,8.2-2.7V68.8c0-0.6-0.5-1.2-1.2-1.2h-1v-7c0-0.6-0.5-1.2-1.2-1.2h-0.4v-4l1.8-2.2
		c1.5-1.9,2.4-4.3,2.4-6.8v-4.2c0,0,0-0.1,0-0.1v-9.7c-0.2,0.2-0.3,0.4-0.4,0.6C69.5,33,69.2,32.9,68.8,32.9z"/>
	<polygon id="XMLID_33_" class="st1" points="65.6,73.1 65.6,69.3 65.9,69.3 80,69.3 80,73.1 	"/>
	<path id="XMLID_32_" class="st6" d="M82,54.3L82,54.3L82,54.3C81.9,54.4,81.9,54.4,82,54.3l0,3.3c0,1.4-0.5,2.7-1.3,3.8l-1.5,1.9
		c-0.2,0.2-0.3,0.5-0.3,0.7v3H67v-3c0-0.3-0.1-0.6-0.4-0.9l-1.4-1.3C64.5,61.1,64,60,64,58.9V47.7c0.9,0.4,1.5,1.4,1.5,2.4v4.3
		c0,0.6,0.5,1.1,1,1.2c0.1,0,7.3,0.9,7.3,5.6c0,0.6,0.5,1.2,1.2,1.2c0.6,0,1.2-0.5,1.2-1.2c0-2.9-1.7-5.2-4.9-6.6
		c-1.3-0.6-2.6-0.9-3.5-1.1V36.1c0-0.5,0.4-0.9,0.9-0.9h0c0.5,0,0.9,0.4,0.9,0.9V50c0,0.6,0.5,1.2,1.2,1.2S72,50.7,72,50V36.1v-1.7
		c0-0.5,0.4-0.9,0.9-0.9h0c0.5,0,0.9,0.4,0.9,0.9v2.4V50c0,0.6,0.5,1.2,1.2,1.2s1.2-0.5,1.2-1.2V36.9c0-0.5,0.4-0.9,0.9-0.9h0
		c0.5,0,0.9,0.4,0.9,0.9v3.6V50c0,0.6,0.5,1.2,1.2,1.2c0.6,0,1.2-0.5,1.2-1.2v-9.6c0-0.5,0.4-0.9,0.9-0.9h0c0.5,0,0.9,0.4,0.9,0.9
		V54.3z"/>
	<path id="XMLID_31_" class="st5" d="M81.1,75.4H67.5h-3H64v8.3c0,0,0,0,0,0V98c1.2-0.3,2.3-0.7,3.5-1.1c5.2-1.9,9.9-4.7,14.1-8.1
		V75.4H81.1z"/>
</g>
</svg>
