<?xml version="1.0" encoding="utf-8"?>
<!-- Generator: Adobe Illustrator 19.0.0, SVG Export Plug-In . SVG Version: 6.00 Build 0)  -->
<svg version="1.1" id="Layer_1" xmlns="http://www.w3.org/2000/svg" xmlns:xlink="http://www.w3.org/1999/xlink" x="0px" y="0px"
	 viewBox="0 0 100 100" style="enable-background:new 0 0 100 100;" xml:space="preserve">
<style type="text/css">
	.st0{fill:#288BC9;}
	.st1{fill:#5E6BB2;}
	.st2{fill:#010101;}
	.st3{fill:#70CAEA;}
	.st4{fill:#FFFFFF;}
	.st5{fill:#F89F1F;}
	.st6{fill:#F5BE9A;}
	.st7{fill:#444446;}
</style>
<g id="XMLID_46_">
	<g id="XMLID_56_">
		<circle id="XMLID_16_" class="st0" cx="50" cy="50" r="50"/>
		<path id="XMLID_30_" class="st1" d="M99.5,57.3c2.8-18.9-5.5-36.9-19.9-47.6l-59,80.7c6.3,4.6,13.8,7.8,22.1,9
			C70.1,103.5,95.4,84.6,99.5,57.3z"/>
	</g>
	<g id="XMLID_47_">
		<path id="XMLID_29_" class="st2" d="M66.4,32.9l4.5-4.7l0.7,0.7c0.6,0.6,1.3,0.9,2.1,0.9h0c0.8,0,1.5-0.3,2.1-0.9l3.3-3.2
			c1.2-1.1,1.2-3,0-4.2L75.6,18c-0.1-0.1-0.1-0.3-0.3-0.4L68.7,11c-1.1-1.2-3-1.2-4.2,0l-3.3,3.2c-0.9,0.9-1.1,2.3-0.6,3.4L55.9,17
			c-2.4-0.3-4.8,0.6-6.5,2.3l-7.6,8H36c-1.8,0-3.3,1.5-3.3,3.3v16.9v1.8h-6.1c-1.2,0-2.3,0.7-2.8,1.9l-3.6,8.3
			c-0.1,0.3-0.2,0.6-0.2,1c0,0,0,0,0,0v20.1c0,1.9,1.5,3.4,3.4,3.4h51.7c1.9,0,3.4-1.5,3.4-3.4V60.5c0,0,0,0,0,0
			c0-0.3-0.1-0.6-0.2-0.9l-3.5-8.3c-0.5-1.2-1.6-1.9-2.8-1.9h-6.2V33.5C66,33.3,66.2,33.1,66.4,32.9z"/>
		<path id="XMLID_28_" class="st3" d="M62.8,15.8l3.3-3.2c0.3-0.3,0.8-0.3,1.1,0l5.6,5.5c0.1,0.1,0.1,0.3,0.2,0.4l4.6,4.6
			c0.3,0.3,0.3,0.8,0,1.1l-3.3,3.2c-0.1,0.1-0.3,0.2-0.5,0.2c0,0,0,0,0,0c-0.2,0-0.4-0.1-0.5-0.2l-1.4-1.4c0,0,0,0-0.1-0.1l-3.3-3.3
			l-5.6-5.7C62.5,16.5,62.5,16.1,62.8,15.8z"/>
		<path id="XMLID_27_" class="st4" d="M36,29.6h12c-0.3,0.6-0.5,1.3-0.5,2c0,2.3,1.9,4.3,4.3,4.3h7.7c1.4,0,2.8-0.3,4.1-0.9v20.2H35
			v-7.6c0,0,0,0,0,0V30.7C35,30.1,35.4,29.6,36,29.6z"/>
		<path id="XMLID_26_" class="st5" d="M76.3,80.6c0,0.6-0.5,1.2-1.2,1.2H23.4c-0.6,0-1.2-0.5-1.2-1.2V62.8c0.1,0,0.1,0,0.2,0h35.8
			h8.7h9.3c0.1,0,0.1,0,0.2,0V80.6z"/>
		<path id="XMLID_25_" class="st5" d="M72,51.6c0.4,0,0.7,0.2,0.8,0.5l3.5,8.3c0,0.1,0,0.1,0,0.1c0,0-0.1,0.1-0.1,0.1h-9.3
			c0,0,0,0,0,0H22.4c-0.1,0-0.1,0-0.1-0.1c0,0,0-0.1,0-0.2l3.6-8.3c0.1-0.3,0.5-0.5,0.8-0.5h6.1v3.6h-0.8c-0.6,0-1.1,0.5-1.1,1.1
			c0,0.6,0.5,1.1,1.1,1.1h34.7c0.6,0,1.1-0.5,1.1-1.1c0-0.6-0.5-1.1-1.1-1.1h-0.8v-3.6H72z"/>
		<path id="XMLID_24_" class="st6" d="M64.8,31.4c-1.4,1.5-3.4,2.3-5.4,2.3h-7.7v0c-1.1,0-2-0.9-2-2c0-1.1,0.9-2,2-2h4.6
			c0.6,0,1.1-0.5,1.1-1.1c0-0.6-0.5-1.1-1.1-1.1H44.8l6.1-6.5c1.2-1.3,2.9-1.9,4.6-1.7l7.3,0.9l3.9,4l2.6,2.6L64.8,31.4z"/>
		<path id="XMLID_23_" class="st2" d="M66.8,67.5H31.7c-1.5,0-2.7,1.2-2.7,2.7v3.5c0,1.5,1.2,2.7,2.7,2.7h35.1
			c1.5,0,2.7-1.2,2.7-2.7v-3.5C69.5,68.7,68.3,67.5,66.8,67.5z"/>
		<path id="XMLID_22_" class="st7" d="M67.3,73.7c0,0.3-0.2,0.5-0.5,0.5H31.7c-0.3,0-0.5-0.2-0.5-0.5v-3.5c0-0.3,0.2-0.5,0.5-0.5
			h35.1c0.3,0,0.5,0.2,0.5,0.5V73.7z"/>
	</g>
</g>
</svg>
